 <svg version="1.0" xmlns="http://www.w3.org/2000/svg"  width="144.000000pt" height="173.000000pt" viewBox="0 0 144.000000 173.000000"  preserveAspectRatio="xMidYMid meet">  <g transform="translate(0.000000,173.000000) scale(0.100000,-0.100000)" fill="#000000" stroke="none"> <path d="M1086 1578 c-9 -12 -16 -32 -16 -43 0 -39 -58 -114 -118 -153 -33 -21 -114 -56 -185 -80 -261 -88 -409 -195 -505 -365 -88 -156 -114 -357 -73 -558 18 -86 29 -123 60 -203 21 -53 21 -20 1 40 -117 340 -71 652 127 847 102 101 195 154 392 224 229 81 299 137 319 256 8 45 31 59 57 37 24 -20 65 -165 65 -229 0 -42 5 -62 16 -72 15 -12 16 -11 9 10 -4 13 -9 49 -11 80 -3 70 -39 186 -65 212 -25 25 -54 24 -73 -3z"/> <path d="M1112 1418 c-50 -80 -121 -124 -310 -190 -317 -110 -443 -222 -527 -467 -13 -39 -20 -71 -14 -71 5 0 9 4 9 9 0 18 96 105 163 148 66 43 206 113 225 113 5 0 12 -10 15 -22 4 -12 9 -19 12 -16 4 3 1 16 -5 28 -9 17 -17 20 -43 15 -45 -10 -174 -76 -254 -130 -38 -26 -69 -42 -71 -35 -9 25 63 144 125 206 35 35 67 64 72 64 4 0 19 10 32 21 33 30 151 84 261 120 128 41 210 81 262 129 64 59 69 56 62 -52 -7 -123 -10 -143 -36 -212 -61 -161 -227 -357 -375 -443 -105 -61 -153 -75 -264 -79 -57 -2 -106 -6 -108 -8 -10 -10 92 -18 143 -12 68 8 168 44 240 87 74 44 210 173 272 257 77 104 137 236 130 285 -2 12 2 21 7 20 13 -2 18 154 7 222 l-7 50 -23 -37z"/> <path d="M1211 1226 c1 -17 -1 -38 -4 -46 -3 -8 -10 -36 -16 -63 -41 -173 -220 -411 -400 -531 -129 -86 -299 -136 -411 -121 -64 9 -75 17 -60 44 6 12 10 27 8 33 -2 6 -10 -3 -18 -21 -11 -28 -11 -34 4 -49 27 -27 211 -23 296 8 136 48 227 105 330 209 164 164 255 331 293 537 4 23 2 31 -9 31 -11 0 -15 -10 -13 -31z"/> <path d="M570 869 c-102 -49 -196 -115 -243 -169 -94 -110 -86 -279 20 -447 l32 -52 -45 -27 c-25 -15 -43 -29 -40 -31 7 -7 96 45 96 56 0 4 -22 50 -49 102 -83 159 -88 262 -16 368 21 31 107 109 143 129 84 48 152 82 164 82 7 0 22 7 32 15 38 29 -8 16 -94 -26z"/> </g> </svg> 